<svg width="44" height="44" fill="none" xmlns="http://www.w3.org/2000/svg"><path fill-rule="evenodd" clip-rule="evenodd" d="M11.49 10.29c-1.78 0-3.55.28-5.26.85-.17.57-.23 1.2-.23 1.77v18.12a6.9 6.9 0 0 0 3.89 6.23 27.35 27.35 0 0 0 5.54-4.35c8.86-8.85 8.91-22.62-3.94-22.62z" fill="#161616"/><path fill-rule="evenodd" clip-rule="evenodd" d="M32.91 17.83c0-6.4-2.74-10-7.02-11.83H12.9a7.01 7.01 0 0 0-6.68 5.14c1.71-.51 3.43-.8 5.2-.8 12.86 0 12.86 13.77 3.94 22.63a27.35 27.35 0 0 1-5.54 4.34c.97.46 2 .69 3.03.69h7.25c7.72-4.63 12.8-12.29 12.8-20.17z" fill="#0000F7"/><path fill-rule="evenodd" clip-rule="evenodd" d="M31.09 6h-5.15c4.29 1.89 7.03 5.37 7.03 11.83 0 7.88-5.08 15.6-12.74 20.17h10.86A6.9 6.9 0 0 0 38 31.09V12.9A6.9 6.9 0 0 0 31.09 6z" fill="#E3E3E3"/></svg>